<svg width="228" height="139" viewBox="0 0 228 139" fill="none" xmlns="http://www.w3.org/2000/svg">
<path d="M125.28 61.208C125.28 63.416 124.128 65.768 121.824 68.264C119.52 70.664 116.592 73.208 113.04 75.896C109.584 78.488 105.84 81.272 101.808 84.248C97.776 87.128 93.984 90.104 90.432 93.176C86.976 96.248 84.096 99.416 81.792 102.68C79.488 105.944 78.336 109.304 78.336 112.76C78.336 114.776 77.664 115.784 76.32 115.784C75.744 115.784 75.456 115.352 75.456 114.488C75.456 113.72 75.456 113.048 75.456 112.472C74.976 113.528 74.688 114.728 74.592 116.072C74.592 117.512 74.592 118.76 74.592 119.816C74.592 120.584 74.592 121.256 74.592 121.832C74.688 122.504 74.832 123.128 75.024 123.704C75.12 123.608 75.408 123.08 75.888 122.12C76.368 121.256 76.704 120.68 76.896 120.392H77.76L78.48 120.824L79.056 122.408C78.864 123.656 78.48 124.904 77.904 126.152C77.424 127.496 76.416 128.168 74.88 128.168C73.056 127.496 72 126.296 71.712 124.568C71.424 122.936 71.28 121.304 71.28 119.672C71.28 115.16 71.712 110.408 72.576 105.416C73.44 100.328 74.496 95.24 75.744 90.152C77.088 85.064 78.528 80.072 80.064 75.176C81.6 70.184 82.992 65.528 84.24 61.208H83.52C82.368 61.208 80.88 61.496 79.056 62.072C77.328 62.648 76.176 63.464 75.6 64.52C74.448 66.44 72.528 69.608 69.84 74.024C67.152 78.44 64.128 83.384 60.768 88.856C57.408 94.328 53.856 99.992 50.112 105.848C46.368 111.704 42.816 117.032 39.456 121.832C36.096 126.728 33.072 130.712 30.384 133.784C27.792 136.952 25.872 138.536 24.624 138.536C23.76 138.536 23.04 138.248 22.464 137.672C21.984 137.096 21.6 136.376 21.312 135.512C21.12 134.648 20.976 133.784 20.88 132.92C20.88 132.056 20.88 131.336 20.88 130.76C20.88 126.92 21.264 122.648 22.032 117.944C22.8 113.24 23.76 108.488 24.912 103.688C26.064 98.888 27.312 94.184 28.656 89.576C30 84.872 31.296 80.6 32.544 76.76L31.536 76.616C30 77.288 27.696 78.2 24.624 79.352C21.648 80.408 18.672 81.608 15.696 82.952C12.624 84.296 9.888 85.736 7.488 87.272C5.088 88.712 3.744 90.2 3.456 91.736C3.36 92.696 3.792 93.176 4.752 93.176C5.232 93.176 5.808 93.128 6.48 93.032C7.152 92.84 7.824 92.744 8.496 92.744C8.784 92.744 8.976 92.888 9.072 93.176C9.168 93.464 9.216 93.704 9.216 93.896C9.216 94.76 8.976 95.336 8.496 95.624C7.92 95.912 7.248 96.056 6.48 96.056C6.096 96.056 5.568 96.008 4.896 95.912C4.224 95.816 3.6 95.672 3.024 95.48C2.352 95.192 1.776 94.904 1.296 94.616C0.815999 94.232 0.575999 93.752 0.575999 93.176C0.575999 91.928 1.152 90.68 2.304 89.432C3.36 88.088 4.704 86.84 6.336 85.688C7.872 84.536 9.456 83.576 11.088 82.808C12.72 81.944 14.112 81.32 15.264 80.936C15.456 80.648 16.368 80.12 18 79.352C19.728 78.584 21.6 77.768 23.616 76.904C25.728 75.944 27.696 75.08 29.52 74.312C31.44 73.544 32.688 73.016 33.264 72.728C33.936 71.672 34.944 69.368 36.288 65.816C37.728 62.264 39.216 58.424 40.752 54.296C42.384 50.072 43.872 46.04 45.216 42.2C46.656 38.264 47.712 35.384 48.384 33.56C49.056 31.832 49.632 29.816 50.112 27.512C50.688 25.112 51.456 23.144 52.416 21.608C52.512 21.128 53.04 20.744 54 20.456C54.672 20.648 55.248 20.84 55.728 21.032C56.208 21.224 56.448 21.752 56.448 22.616C56.448 23.192 56.256 24.056 55.872 25.208C55.584 26.264 55.2 27.416 54.72 28.664C54.24 29.912 53.712 31.064 53.136 32.12C52.656 33.08 52.176 33.8 51.696 34.28C49.296 40.328 46.944 46.376 44.64 52.424C42.432 58.376 40.176 64.376 37.872 70.424V70.712C38.16 70.712 38.976 70.52 40.32 70.136C41.76 69.656 43.248 69.128 44.784 68.552C46.416 67.976 47.952 67.448 49.392 66.968C50.832 66.392 51.84 66.008 52.416 65.816C53.184 65.528 54.72 65.096 57.024 64.52C59.424 63.944 61.968 63.32 64.656 62.648C67.344 61.88 69.744 61.16 71.856 60.488C74.064 59.816 75.312 59.288 75.6 58.904C76.176 58.136 76.896 57.032 77.76 55.592C78.72 54.056 79.68 52.424 80.64 50.696C81.6 48.968 82.512 47.288 83.376 45.656C84.24 44.024 84.912 42.728 85.392 41.768L85.68 40.904C85.968 40.328 86.736 38.984 87.984 36.872C89.328 34.76 90.72 32.456 92.16 29.96C93.696 27.368 95.088 24.968 96.336 22.76C97.584 20.456 98.352 18.92 98.64 18.152C99.024 17.096 99.36 15.944 99.648 14.696C99.936 13.448 100.368 12.344 100.944 11.384L101.952 10.52C102.24 10.424 102.528 9.992 102.816 9.224C103.2 8.456 103.536 7.592 103.824 6.632C104.208 5.576 104.544 4.568 104.832 3.60799C105.12 2.55199 105.36 1.832 105.552 1.44799C105.936 0.775997 106.464 0.439999 107.136 0.439999C107.424 0.439999 107.76 0.583997 108.144 0.871993C108.624 1.064 109.008 1.256 109.296 1.44799C109.296 2.984 109.008 4.616 108.432 6.34399C107.952 7.97599 107.28 9.608 106.416 11.24C105.648 12.776 104.832 14.312 103.968 15.848C103.2 17.384 102.576 18.824 102.096 20.168C101.712 21.32 100.848 23.672 99.504 27.224C98.256 30.68 96.912 34.424 95.472 38.456C94.032 42.392 92.736 46.088 91.584 49.544C90.528 53 89.952 55.256 89.856 56.312H90.432C93.6 56.312 96.864 55.976 100.224 55.304C103.68 54.536 107.088 54.152 110.448 54.152C111.6 54.152 112.992 54.248 114.624 54.44C116.352 54.536 117.984 54.872 119.52 55.448C121.152 55.928 122.496 56.648 123.552 57.608C124.704 58.472 125.28 59.672 125.28 61.208ZM72.288 64.088H71.712C71.136 64.088 69.84 64.328 67.824 64.808C65.808 65.288 63.456 65.912 60.768 66.68C58.176 67.448 55.392 68.312 52.416 69.272C49.536 70.232 46.848 71.192 44.352 72.152C41.952 73.016 39.936 73.832 38.304 74.6C36.672 75.368 35.808 75.992 35.712 76.472C34.368 80.984 32.976 85.592 31.536 90.296C30.096 95 28.8 99.752 27.648 104.552C26.496 109.256 25.536 114.008 24.768 118.808C24 123.704 23.616 128.552 23.616 133.352C23.616 133.544 23.616 133.784 23.616 134.072C23.712 134.36 23.856 134.6 24.048 134.792L24.336 135.224C25.104 134.936 26.784 133.064 29.376 129.608C32.064 126.248 35.136 122.072 38.592 117.08C42.048 112.088 45.696 106.712 49.536 100.952C53.472 95.096 57.072 89.576 60.336 84.392C63.6 79.208 66.336 74.744 68.544 71C70.848 67.256 72.096 64.952 72.288 64.088ZM75.6 108.296H75.744C77.376 105.416 78.96 102.728 80.496 100.232C82.032 97.64 84.048 95.144 86.544 92.744C86.832 92.456 87.936 91.64 89.856 90.296C91.776 88.952 94.08 87.272 96.768 85.256C99.456 83.24 102.336 81.08 105.408 78.776C108.48 76.376 111.264 74.072 113.76 71.864C116.352 69.56 118.416 67.496 119.952 65.672C121.584 63.752 122.256 62.312 121.968 61.352C121.68 60.488 121.104 59.864 120.24 59.48C119.472 59 118.56 58.664 117.504 58.472C116.544 58.28 115.488 58.184 114.336 58.184C113.28 58.088 112.368 58.04 111.6 58.04C107.568 58.04 103.824 58.28 100.368 58.76C96.912 59.144 93.264 59.576 89.424 60.056C88.752 60.152 87.984 61.256 87.12 63.368C86.256 65.48 85.344 68.168 84.384 71.432C83.52 74.6 82.608 78.152 81.648 82.088C80.784 85.928 79.968 89.624 79.2 93.176C78.432 96.632 77.712 99.752 77.04 102.536C76.464 105.32 75.984 107.24 75.6 108.296ZM92.88 34.856C92.784 34.952 92.16 35.96 91.008 37.88C89.856 39.8 88.512 42.056 86.976 44.648C85.536 47.24 84.096 49.88 82.656 52.568C81.216 55.16 80.16 57.128 79.488 58.472H79.92C80.208 58.472 80.64 58.424 81.216 58.328C81.888 58.232 82.512 58.088 83.088 57.896C83.76 57.608 84.384 57.32 84.96 57.032C85.536 56.744 85.872 56.456 85.968 56.168C86.448 54.632 87.024 52.952 87.696 51.128C88.464 49.208 89.184 47.336 89.856 45.512C90.624 43.592 91.296 41.72 91.872 39.896C92.448 38.072 92.784 36.392 92.88 34.856ZM137.63 74.168C135.71 76.664 133.838 78.632 132.014 80.072C130.19 81.512 128.51 82.232 126.974 82.232C125.918 82.232 125.054 81.8 124.382 80.936C123.614 80.072 123.23 78.728 123.23 76.904C123.23 75.56 123.614 74.12 124.382 72.584C125.15 70.952 126.11 69.416 127.262 67.976C128.414 66.536 129.662 65.336 131.006 64.376C132.35 63.416 133.646 62.936 134.894 62.936C135.662 62.936 136.526 63.176 137.486 63.656C138.542 64.136 139.31 64.712 139.79 65.384C140.366 64.904 140.894 64.232 141.374 63.368C141.95 62.504 142.526 61.688 143.102 60.92C143.774 60.056 144.446 59.336 145.118 58.76C145.886 58.088 146.654 57.752 147.422 57.752C148.094 57.752 148.478 57.896 148.574 58.184C148.766 58.472 148.862 58.712 148.862 58.904C148.862 59.192 148.478 59.96 147.71 61.208C146.942 62.36 146.078 63.704 145.118 65.24C144.254 66.776 143.438 68.408 142.67 70.136C141.902 71.864 141.518 73.448 141.518 74.888C141.518 75.656 141.566 76.472 141.662 77.336C141.854 78.104 142.43 78.44 143.39 78.344C144.83 78.152 146.414 77.432 148.142 76.184C149.966 74.84 151.694 73.448 153.326 72.008C154.958 70.472 156.35 69.128 157.502 67.976C158.75 66.728 159.518 66.152 159.806 66.248C160.19 66.536 160.382 66.824 160.382 67.112C160.382 67.304 160.334 67.448 160.238 67.544C159.662 68.12 158.75 69.176 157.502 70.712C156.254 72.152 154.862 73.64 153.326 75.176C151.79 76.712 150.158 78.104 148.43 79.352C146.702 80.504 145.07 81.08 143.534 81.08H142.958C141.71 80.888 140.606 80.504 139.646 79.928C138.686 79.256 138.014 77.336 137.63 74.168ZM138.782 67.688C138.878 67.496 138.686 67.256 138.206 66.968C137.822 66.68 137.294 66.488 136.622 66.392C136.142 66.392 135.758 66.44 135.47 66.536C135.278 66.536 134.942 66.68 134.462 66.968C133.406 67.64 132.254 68.552 131.006 69.704C129.854 70.76 128.846 71.864 127.982 73.016C127.214 74.072 126.686 75.128 126.398 76.184C126.11 77.24 126.302 78.104 126.974 78.776L127.118 78.92C127.886 78.92 128.846 78.488 129.998 77.624C131.246 76.664 132.446 75.56 133.598 74.312C134.846 73.064 135.95 71.816 136.91 70.568C137.87 69.32 138.494 68.36 138.782 67.688ZM178.959 67.832C178.287 68.312 177.327 68.84 176.079 69.416C174.831 69.992 173.535 70.568 172.191 71.144C170.847 71.624 169.599 72.104 168.447 72.584C167.295 72.968 166.575 73.256 166.287 73.448C165.903 73.736 165.375 74.36 164.703 75.32C164.031 76.184 163.311 77.144 162.543 78.2C161.775 79.16 160.959 80.072 160.095 80.936C159.231 81.704 158.367 82.088 157.503 82.088C156.927 82.088 156.447 81.944 156.063 81.656C155.583 81.272 155.343 80.792 155.343 80.216C155.343 79.352 155.727 78.584 156.495 77.912C157.167 77.144 157.935 76.424 158.799 75.752C159.759 74.984 160.719 74.312 161.679 73.736C162.639 73.16 163.407 72.584 163.983 72.008C164.463 71.528 164.847 71 165.135 70.424C165.423 69.848 165.711 69.32 165.999 68.84C166.191 68.552 166.383 68.168 166.575 67.688C166.767 67.208 166.863 66.824 166.863 66.536C166.863 65.864 166.623 65.528 166.143 65.528C164.991 65.528 163.935 66.008 162.975 66.968C162.111 67.928 161.295 68.792 160.527 69.56C159.855 70.136 158.943 71.384 157.791 73.304C156.735 75.128 155.727 77.144 154.767 79.352C153.999 81.08 153.135 83.096 152.175 85.4C151.119 87.608 150.111 89.96 149.151 92.456C148.095 94.952 147.231 97.448 146.559 99.944C145.791 102.44 145.311 104.792 145.119 107C145.023 107.768 145.023 108.392 145.119 108.872C145.215 109.352 145.263 109.784 145.263 110.168C145.263 111.032 144.927 111.464 144.255 111.464C143.679 111.464 143.199 110.888 142.815 109.736C142.335 108.68 142.191 107.624 142.383 106.568C143.439 100.424 144.735 95.384 146.271 91.448C147.711 87.512 149.247 83.768 150.879 80.216C151.839 78.2 152.799 76.088 153.759 73.88C154.719 71.576 155.727 69.512 156.783 67.688C157.071 67.112 157.503 66.152 158.079 64.808C158.751 63.368 159.375 61.88 159.951 60.344C160.623 58.712 161.247 57.176 161.823 55.736C162.399 54.2 162.831 53.096 163.119 52.424C163.311 51.944 163.647 51.368 164.127 50.696C164.607 50.024 165.087 49.688 165.567 49.688C166.527 49.688 167.007 50.12 167.007 50.984C167.007 51.272 166.671 52.136 165.999 53.576C165.423 54.92 164.751 56.456 163.983 58.184C163.215 59.816 162.495 61.352 161.823 62.792C161.247 64.136 160.959 64.904 160.959 65.096C161.631 64.904 162.351 64.616 163.119 64.232C163.983 63.848 164.799 63.656 165.567 63.656C166.431 63.656 167.295 63.944 168.159 64.52C169.119 65 169.551 65.768 169.455 66.824C169.359 67.592 169.071 68.312 168.591 68.984C168.207 69.56 167.919 70.088 167.727 70.568C167.823 70.664 168.303 70.616 169.167 70.424C170.031 70.136 170.991 69.848 172.047 69.56C173.199 69.176 174.351 68.744 175.503 68.264C176.655 67.784 177.519 67.352 178.095 66.968C178.863 66.488 179.439 66.248 179.823 66.248C180.111 66.248 180.207 66.392 180.111 66.68C180.015 66.968 179.631 67.352 178.959 67.832ZM199.631 67.832C198.959 68.312 197.999 68.84 196.751 69.416C195.503 69.992 194.207 70.568 192.863 71.144C191.519 71.624 190.271 72.104 189.119 72.584C187.967 72.968 187.247 73.256 186.959 73.448C186.575 73.736 186.047 74.36 185.375 75.32C184.703 76.184 183.983 77.144 183.215 78.2C182.447 79.16 181.631 80.072 180.767 80.936C179.903 81.704 179.039 82.088 178.175 82.088C177.599 82.088 177.119 81.944 176.735 81.656C176.255 81.272 176.015 80.792 176.015 80.216C176.015 79.352 176.399 78.584 177.167 77.912C177.839 77.144 178.607 76.424 179.471 75.752C180.431 74.984 181.391 74.312 182.351 73.736C183.311 73.16 184.079 72.584 184.655 72.008C185.135 71.528 185.519 71 185.807 70.424C186.095 69.848 186.383 69.32 186.671 68.84C186.863 68.552 187.055 68.168 187.247 67.688C187.439 67.208 187.535 66.824 187.535 66.536C187.535 65.864 187.295 65.528 186.815 65.528C185.663 65.528 184.607 66.008 183.647 66.968C182.783 67.928 181.967 68.792 181.199 69.56C180.527 70.136 179.615 71.384 178.463 73.304C177.407 75.128 176.399 77.144 175.439 79.352C174.671 81.08 173.807 83.096 172.847 85.4C171.791 87.608 170.783 89.96 169.823 92.456C168.767 94.952 167.903 97.448 167.231 99.944C166.463 102.44 165.983 104.792 165.791 107C165.695 107.768 165.695 108.392 165.791 108.872C165.887 109.352 165.935 109.784 165.935 110.168C165.935 111.032 165.599 111.464 164.927 111.464C164.351 111.464 163.871 110.888 163.487 109.736C163.007 108.68 162.863 107.624 163.055 106.568C164.111 100.424 165.407 95.384 166.943 91.448C168.383 87.512 169.919 83.768 171.551 80.216C172.511 78.2 173.471 76.088 174.431 73.88C175.391 71.576 176.399 69.512 177.455 67.688C177.743 67.112 178.175 66.152 178.751 64.808C179.423 63.368 180.047 61.88 180.623 60.344C181.295 58.712 181.919 57.176 182.495 55.736C183.071 54.2 183.503 53.096 183.791 52.424C183.983 51.944 184.319 51.368 184.799 50.696C185.279 50.024 185.759 49.688 186.239 49.688C187.199 49.688 187.679 50.12 187.679 50.984C187.679 51.272 187.343 52.136 186.671 53.576C186.095 54.92 185.423 56.456 184.655 58.184C183.887 59.816 183.167 61.352 182.495 62.792C181.919 64.136 181.631 64.904 181.631 65.096C182.303 64.904 183.023 64.616 183.791 64.232C184.655 63.848 185.471 63.656 186.239 63.656C187.103 63.656 187.967 63.944 188.831 64.52C189.791 65 190.223 65.768 190.127 66.824C190.031 67.592 189.743 68.312 189.263 68.984C188.879 69.56 188.591 70.088 188.399 70.568C188.495 70.664 188.975 70.616 189.839 70.424C190.703 70.136 191.663 69.848 192.719 69.56C193.871 69.176 195.023 68.744 196.175 68.264C197.327 67.784 198.191 67.352 198.767 66.968C199.535 66.488 200.111 66.248 200.495 66.248C200.783 66.248 200.879 66.392 200.783 66.68C200.687 66.968 200.303 67.352 199.631 67.832ZM226.639 66.248C226.351 66.44 225.391 67.208 223.759 68.552C222.223 69.8 220.399 71.288 218.287 73.016L212.959 78.344C211.423 79.88 209.935 81.416 208.495 82.952C207.151 84.488 206.095 86.216 205.327 88.136C204.847 89.384 204.223 90.872 203.455 92.6C202.783 94.232 202.063 95.912 201.295 97.64C200.623 99.368 199.903 101.096 199.135 102.824C198.463 104.456 197.839 105.848 197.263 107C196.591 108.44 195.535 110.696 194.095 113.768C192.655 116.84 190.831 119.816 188.623 122.696C187.663 123.944 186.655 125 185.599 125.864C184.543 126.728 183.487 127.16 182.431 127.16C180.895 127.16 180.319 125.624 180.703 122.552C180.799 121.496 181.039 120.344 181.423 119.096C181.807 117.848 182.239 116.648 182.719 115.496C183.199 114.344 183.679 113.288 184.159 112.328C184.543 111.464 184.879 110.792 185.167 110.312C186.607 108.008 187.951 105.896 189.199 103.976C190.351 102.056 191.551 100.232 192.799 98.504C194.047 96.68 195.343 94.856 196.687 93.032C198.031 91.208 199.567 89.192 201.295 86.984C201.679 86.504 202.111 85.592 202.591 84.248C203.071 82.904 203.551 81.464 204.031 79.928C204.607 78.392 205.135 76.904 205.615 75.464C206.095 73.928 206.527 72.776 206.911 72.008L207.487 70.856C207.295 70.952 206.863 71.432 206.191 72.296C205.519 73.064 204.751 73.976 203.887 75.032C203.023 75.992 202.063 76.904 201.007 77.768C199.951 78.536 198.991 78.92 198.127 78.92C197.167 78.92 196.543 78.392 196.255 77.336C195.967 76.28 195.919 75.368 196.111 74.6C196.207 74.12 196.495 73.256 196.975 72.008C197.455 70.664 197.983 69.368 198.559 68.12C199.135 66.776 199.711 65.624 200.287 64.664C200.959 63.608 201.439 63.08 201.727 63.08C202.207 63.08 202.591 63.128 202.879 63.224C203.263 63.224 203.455 63.416 203.455 63.8C203.455 64.088 203.311 64.616 203.023 65.384C202.735 66.056 202.399 66.872 202.015 67.832C201.631 68.696 201.247 69.608 200.863 70.568C200.479 71.432 200.143 72.2 199.855 72.872C199.375 73.928 199.135 74.744 199.135 75.32C199.231 75.896 199.423 76.184 199.711 76.184C200.191 75.896 200.863 75.32 201.727 74.456C202.591 73.592 203.503 72.632 204.463 71.576C205.519 70.52 206.479 69.464 207.343 68.408C208.303 67.256 209.071 66.248 209.647 65.384C210.415 64.328 211.183 63.08 211.951 61.64C212.719 60.2 213.439 58.856 214.111 57.608C214.495 56.936 214.927 56.6 215.407 56.6C216.175 56.6 216.703 56.696 216.991 56.888C217.375 57.08 217.567 57.56 217.567 58.328C217.567 58.52 217.471 58.808 217.279 59.192C217.087 59.576 216.943 59.864 216.847 60.056C215.887 61.688 214.927 63.56 213.967 65.672C213.007 67.784 212.095 69.896 211.231 72.008C210.463 74.024 209.791 75.848 209.215 77.48C208.639 79.112 208.255 80.264 208.063 80.936L208.495 80.36C209.071 79.688 210.175 78.488 211.807 76.76C213.439 75.032 215.215 73.304 217.135 71.576C219.151 69.752 221.023 68.168 222.751 66.824C224.479 65.48 225.679 64.808 226.351 64.808C226.735 64.808 226.975 65 227.071 65.384C227.263 65.768 227.119 66.056 226.639 66.248ZM200.719 91.304C199.759 92.552 198.319 94.424 196.399 96.92C194.479 99.32 192.559 102.056 190.639 105.128C188.623 108.104 186.895 111.176 185.455 114.344C183.919 117.608 183.055 120.632 182.863 123.416C182.863 123.992 182.959 124.28 183.151 124.28C183.631 124.28 184.687 122.888 186.319 120.104C187.951 117.416 189.727 114.248 191.647 110.6C193.471 106.952 195.295 103.304 197.119 99.656C198.847 95.912 200.047 93.128 200.719 91.304Z" fill="white"/>
</svg>
